PathFileType	4	(X/Y/Z)	TVC_32_Cal_03_0_static_RCNL2025.trc
DataRate	CameraRate	NumFrames	NumMarkers	Units	OrigDataRate	OrigDataStartFrame	OrigNumFrames
100	100	12	27	mm	100	74	197
Frame#	Time	R_Shoulder			L_Shoulder			C7			J_Notch			R_Elbow			L_Elbow			R_Wrist			L_Wrist			R_Asis			L_Asis			R_Psis			L_Psis			Sacral			Thoracic			Sternum			R_Thigh_Lateral			R_Knee_Lateral			R_Shank_Lateral			R_Ankle_Lateral			R_Heel			R_Toe			L_Thigh_Lateral			L_Knee_Lateral			L_Shank_Lateral			L_Ankle_Lateral			L_Heel			L_Toe		
		X1	Y1	Z1	X2	Y2	Z2	X3	Y3	Z3	X4	Y4	Z4	X5	Y5	Z5	X6	Y6	Z6	X7	Y7	Z7	X8	Y8	Z8	X9	Y9	Z9	X10	Y10	Z10	X11	Y11	Z11	X12	Y12	Z12	X13	Y13	Z13	X14	Y14	Z14	X15	Y15	Z15	X16	Y16	Z16	X17	Y17	Z17	X18	Y18	Z18	X19	Y19	Z19	X20	Y20	Z20	X21	Y21	Z21	X22	Y22	Z22	X23	Y23	Z23	X24	Y24	Z24	X25	Y25	Z25	X26	Y26	Z26	X27	Y27	Z27
74	0.73000000	-157.727509	1472.768677	-35.020340	-165.028046	1452.275269	-414.517029	-220.397507	1517.578369	-222.402191	-56.664543	1420.815308	-214.690277	-190.263702	1156.126953	134.103226	-173.789337	1118.698853	-513.765076	-111.013237	893.278198	100.413467	-86.012432	860.468903	-477.646561	-93.153564	1012.405518	-66.404709	-96.389816	1015.010132	-347.873779	-287.694550	1027.036621	-154.380157	-285.126221	1024.345703	-255.485809	-286.410385	1025.691162	-204.932983	-282.121063	1252.941650	-211.955963	-33.190891	1275.577515	-216.555405	-194.164871	638.556030	-2.140072	-178.281586	501.812439	-48.146572	-227.982544	303.279633	4.122446	-240.275558	82.299156	-60.950237	-293.823792	53.727421	-125.973076	-96.956352	41.692848	-55.788963	-162.649506	680.355408	-434.666443	-186.358383	503.217896	-398.213104	-205.632172	360.904266	-462.696320	-198.839600	76.645561	-425.202179	-265.592041	60.906651	-376.878601	-57.920078	40.915302	-404.426941
75	0.74000000	-157.714203	1472.729370	-35.005222	-165.100830	1452.393188	-414.575165	-220.462173	1517.634277	-222.355530	-56.754929	1420.716797	-214.845016	-190.243240	1156.086548	134.070755	-173.771210	1118.696045	-513.779114	-110.972038	893.313049	100.355675	-85.914078	860.510620	-477.656952	-93.129814	1012.388977	-66.412758	-96.383476	1015.011963	-347.872467	-287.762329	1027.057495	-154.354507	-285.132019	1024.309082	-255.471512	-286.447174	1025.683289	-204.913010	-282.273865	1253.022583	-211.964645	-33.214375	1275.604004	-216.505814	-194.353699	638.634644	-2.060750	-178.339706	501.780365	-48.064590	-227.932663	302.891235	3.667756	-240.359451	82.288216	-60.912109	-293.882690	53.760414	-125.857796	-96.996399	41.672165	-55.818489	-162.793152	680.371094	-434.642487	-186.339920	503.143494	-398.187988	-205.636139	360.930084	-462.678162	-198.834488	76.563889	-425.146820	-265.646637	60.738800	-376.940979	-57.944889	40.889664	-404.352692
76	0.75000000	-157.738861	1472.715332	-35.030060	-165.027542	1452.335327	-414.490112	-220.422272	1517.628296	-222.288300	-56.744160	1420.808594	-214.597488	-190.009384	1156.102905	134.031921	-173.721085	1118.848145	-513.814148	-110.993496	893.302307	100.305576	-85.781982	860.531250	-477.817017	-93.174980	1012.431763	-66.382233	-96.360252	1015.068420	-347.896149	-287.737946	1027.067261	-154.390869	-285.122986	1024.338745	-255.525635	-286.430466	1025.703003	-204.958252	-282.276550	1253.002197	-211.965195	-33.309326	1275.448730	-216.174133	-194.246597	638.537842	-2.146508	-178.282608	501.732666	-48.154228	-227.928711	303.130798	4.020079	-240.377289	82.291222	-60.915958	-293.889008	53.708324	-125.935249	-96.979614	41.624126	-55.856789	-162.710358	680.318726	-434.730621	-186.343628	503.175323	-398.188446	-205.628098	360.897980	-462.743988	-198.844116	76.595268	-425.161346	-265.584167	60.778931	-376.875549	-57.906250	40.912251	-404.443024
77	0.76000000	-157.814240	1472.718384	-34.937737	-165.073120	1452.493408	-414.521240	-220.531204	1517.613159	-222.311951	-56.819496	1420.774292	-214.721893	-190.067947	1156.203735	134.062180	-173.499664	1118.887939	-513.717285	-110.983635	893.268677	100.279716	-85.697975	860.609283	-477.766998	-93.157478	1012.419373	-66.411285	-96.369614	1015.019714	-347.874878	-287.707672	1027.054932	-154.422867	-285.194458	1024.424072	-255.448624	-286.451065	1025.739502	-204.935745	-282.257721	1253.009155	-212.003433	-33.323448	1275.589478	-216.293961	-194.245804	638.564819	-2.134533	-178.283203	501.763336	-48.107395	-227.993515	303.350800	4.184984	-240.373505	82.290962	-60.918179	-293.878937	53.704922	-125.874153	-96.975365	41.621773	-55.858040	-162.690826	680.307739	-434.755127	-186.354523	503.173126	-398.239227	-205.609467	360.891937	-462.730896	-198.837738	76.618462	-425.192719	-265.637238	60.743111	-376.938263	-57.973610	40.949776	-404.385101
78	0.77000000	-157.806610	1472.746704	-34.902252	-164.978653	1452.367798	-414.430023	-220.496796	1517.700928	-222.257965	-56.808613	1420.835693	-214.431580	-190.120407	1156.049805	134.020142	-173.489517	1118.924316	-513.837952	-110.936687	893.498962	100.387650	-85.609947	860.627899	-477.777924	-93.153908	1012.428223	-66.402458	-96.380409	1015.008301	-347.866943	-287.766663	1027.063477	-154.479156	-285.185028	1024.354858	-255.596207	-286.475845	1025.709167	-205.037682	-282.271118	1253.000610	-211.983322	-33.240513	1275.691162	-216.461502	-194.174423	638.620728	-2.097268	-178.272583	501.763123	-48.140701	-227.896393	302.919769	3.638523	-240.348999	82.341293	-60.957539	-293.864105	53.762005	-125.853271	-96.969322	41.624847	-55.859627	-162.712677	680.384583	-434.826172	-186.386993	503.209564	-398.255463	-205.656311	360.905762	-462.734100	-198.866394	76.625282	-425.167419	-265.569153	60.770245	-377.014435	-57.977394	40.934925	-404.387634
79	0.78000000	-157.847870	1472.782104	-34.890854	-164.955505	1452.708618	-414.540985	-220.507553	1517.646484	-222.240326	-56.806660	1420.889038	-214.469086	-190.115143	1156.035400	134.012924	-173.339386	1119.068237	-513.788696	-110.950993	893.415741	100.244160	-85.516506	860.782013	-477.805832	-93.090172	1012.464417	-66.442093	-96.471428	1015.062927	-347.946472	-287.829437	1027.143188	-154.457687	-285.196808	1024.414795	-255.609604	-286.513123	1025.778992	-205.033646	-282.264862	1252.999390	-211.988220	-33.347820	1275.499268	-216.089584	-194.147873	638.602112	-2.092650	-178.296799	501.788330	-48.142879	-227.914169	303.201263	4.010229	-240.337143	82.358376	-60.927212	-293.808807	53.740868	-125.987701	-96.949593	41.729511	-55.762943	-162.746674	680.466309	-434.813049	-186.391663	503.213776	-398.247925	-205.634399	360.941040	-462.779572	-198.869583	76.654755	-425.182800	-265.560333	60.925774	-376.945404	-57.970276	40.957218	-404.438568
80	0.79000000	-157.887146	1472.775269	-34.858990	-164.950043	1452.674194	-414.466827	-220.596024	1517.645264	-222.196045	-56.864441	1420.867188	-214.377869	-190.130585	1155.981445	134.017166	-173.255203	1119.052124	-513.794739	-110.868420	893.502655	100.300465	-85.397488	860.805756	-477.839554	-93.167580	1012.473938	-66.498154	-96.376831	1015.069946	-347.902710	-287.812042	1027.109741	-154.477264	-285.204498	1024.424316	-255.601532	-286.508270	1025.767029	-205.039398	-282.360077	1253.106934	-212.035950	-33.300159	1275.665894	-216.351471	-194.245483	638.604004	-2.093306	-178.262650	501.785431	-48.164600	-227.951218	303.002289	3.672280	-240.329071	82.373734	-60.932865	-293.799805	53.829517	-125.891502	-96.970741	41.648792	-55.842239	-162.702271	680.479492	-434.810242	-186.336716	503.158203	-398.220184	-205.611725	360.938965	-462.807526	-198.776245	76.703880	-425.205933	-265.570007	60.920303	-376.949432	-57.893944	40.950054	-404.438019
81	0.80000000	-157.887772	1472.761475	-34.838226	-164.923233	1452.739380	-414.448364	-220.580475	1517.681641	-222.101166	-56.874275	1420.915649	-214.291016	-190.115417	1156.021973	134.042236	-173.280304	1118.810425	-513.720459	-110.863838	893.390198	100.192341	-85.220642	860.919220	-477.929688	-93.230965	1012.430969	-66.515068	-96.463272	1015.066833	-347.929169	-287.808563	1027.083984	-154.495728	-285.217834	1024.462646	-255.549377	-286.513199	1025.773315	-205.022552	-282.374664	1253.134521	-212.040482	-33.362457	1275.495728	-216.043488	-194.150497	638.648010	-2.171340	-178.254852	501.801758	-48.151600	-227.944138	303.381287	4.063769	-240.343353	82.410957	-60.932972	-293.791321	53.788048	-125.953033	-96.958092	41.779152	-55.764721	-162.716095	680.438293	-434.810394	-186.330872	503.209991	-398.252319	-205.575500	360.953644	-462.813385	-198.762619	76.675186	-425.187164	-265.583344	60.984146	-376.935516	-58.008213	40.976040	-404.394287
82	0.81000000	-157.867691	1472.784668	-34.819885	-164.937973	1452.759644	-414.429779	-220.682434	1517.711304	-222.107162	-56.914314	1420.772339	-214.603683	-190.110764	1155.958496	134.035217	-173.040390	1119.210571	-513.833557	-110.811485	893.437042	100.356411	-85.169559	860.919708	-477.854980	-93.192627	1012.489441	-66.533554	-96.360291	1015.142517	-347.869232	-287.869232	1027.092163	-154.521576	-285.260193	1024.442261	-255.634583	-286.564713	1025.767212	-205.078079	-282.368774	1253.156860	-212.037659	-33.416317	1275.477905	-215.871536	-194.370377	638.664673	-2.113487	-178.287033	501.809082	-48.162308	-227.886627	303.383392	4.133646	-240.281219	82.411629	-60.987236	-293.787354	53.881554	-125.896080	-96.930466	41.757740	-55.785805	-162.687653	680.512634	-434.840454	-186.240662	503.225067	-398.277771	-205.573700	360.940521	-462.829376	-198.822006	76.659378	-425.199554	-265.542389	60.958168	-377.141235	-57.971798	40.976093	-404.398224
83	0.82000000	-157.892899	1472.788086	-34.808430	-164.884460	1452.849243	-414.430725	-220.698395	1517.755127	-222.167023	-56.906616	1420.798828	-214.616241	-190.030243	1155.932983	133.982285	-173.063217	1119.203979	-513.944336	-110.692585	893.469055	100.379833	-85.028229	861.018799	-477.942688	-93.186699	1012.507080	-66.533661	-96.448776	1015.101624	-347.932709	-287.931122	1027.112671	-154.514465	-285.259003	1024.454102	-255.647781	-286.595062	1025.783386	-205.081123	-282.465179	1253.095459	-212.096375	-33.485741	1275.384155	-215.899445	-194.369034	638.606750	-2.197502	-178.260788	501.827759	-48.169632	-227.832092	303.325989	4.075840	-240.307846	82.298737	-60.980759	-293.860718	53.878693	-125.863914	-96.946266	41.733616	-55.782444	-162.694885	680.481812	-434.871094	-186.189621	503.187683	-398.316101	-205.570145	360.931976	-462.819702	-198.798431	76.668457	-425.212097	-265.596954	60.910007	-377.033325	-57.973541	40.998219	-404.443298
84	0.83000000	-157.916443	1472.766724	-34.798950	-164.936630	1452.819092	-414.369934	-220.614075	1517.692261	-222.099350	-56.908012	1420.984985	-214.307632	-189.995529	1155.962646	133.946609	-172.934860	1119.262085	-513.937744	-110.621929	893.431976	100.154400	-84.896252	861.068573	-477.948929	-93.193253	1012.509705	-66.529488	-96.459976	1015.156189	-347.930359	-287.936859	1027.115356	-154.511642	-285.222168	1024.369873	-255.705612	-286.579514	1025.742615	-205.108627	-282.472473	1253.112305	-212.075012	-33.307549	1275.766357	-216.303635	-194.399673	638.446411	-2.285642	-178.263550	501.816559	-48.163258	-227.953293	303.351562	4.008480	-240.353241	82.392273	-60.958282	-293.819550	53.879234	-125.901070	-96.937065	41.718689	-55.773399	-162.666855	680.533264	-434.803040	-186.144012	503.189331	-398.293823	-205.532288	360.943939	-462.836945	-198.728470	76.718719	-425.207733	-265.647186	60.849792	-377.012939	-57.938663	40.979588	-404.405060
85	0.84000000	-158.001801	1472.731445	-34.763680	-164.952576	1452.877441	-414.416840	-220.749237	1517.629395	-222.157745	-56.914162	1421.000977	-214.219971	-189.985931	1156.013428	133.975388	-172.944778	1119.270874	-513.929504	-110.580238	893.447296	100.137524	-84.831810	861.093597	-478.061081	-93.205826	1012.523315	-66.513062	-96.448067	1015.165527	-347.913208	-287.906525	1027.069824	-154.568420	-285.228821	1024.307251	-255.718002	-286.567673	1025.688538	-205.143211	-282.476074	1253.029663	-212.052826	-33.290695	1275.949463	-216.145065	-194.320114	638.659180	-2.194033	-178.294739	501.820862	-48.215569	-227.973358	303.349243	4.077418	-240.258347	82.401680	-60.991695	-293.838318	53.824112	-125.898537	-96.935730	41.741055	-55.788418	-162.702438	680.465271	-434.873352	-186.224335	503.212463	-398.291901	-205.562729	360.975861	-462.812683	-198.813782	76.635078	-425.272491	-265.559509	60.944260	-376.966492	-57.933640	40.935318	-404.436676
